<?xml version="1.0" encoding="UTF-8" standalone="no"?><!DOCTYPE svg PUBLIC "-//W3C//DTD SVG 1.1//EN" "http://www.w3.org/Graphics/SVG/1.1/DTD/svg11.dtd"><svg width="100%" height="100%" viewBox="0 0 334 334" version="1.1" xmlns="http://www.w3.org/2000/svg" xmlns:xlink="http://www.w3.org/1999/xlink" xml:space="preserve" xmlns:serif="http://www.serif.com/" style="fill-rule:evenodd;clip-rule:evenodd;stroke-linejoin:round;stroke-miterlimit:2;"><g><clipPath id="_clip1"><rect x="-1.051" y="-0.266" width="1037.5" height="333.333"/></clipPath><g clip-path="url(#_clip1)"><path d="M15.616,135.776c-10.709,57.917 -0.584,112.5 44.375,154.167c34.791,32.458 82.208,44.666 128.958,43.125c39.375,-1.459 79.792,-14.709 106.583,-43.709c16.395,-18.54 27.545,-41.127 32.292,-65.416c4.32,-20.452 5.514,-41.441 3.542,-62.25c-2.292,-25 -12.5,-44.459 -27.709,-63.834c-13.654,-17.413 -30.015,-32.522 -48.458,-44.75c-26.542,-17.75 -57.917,-32.541 -89.583,-38.375c-7.947,-1.445 -16.006,-2.184 -24.084,-2.208c-68.25,0.042 -113.416,55.583 -125.916,123.25Z" style="fill:#ffd51d;fill-rule:nonzero;"/><path d="M1.565,141.747c-0.764,21.124 1.662,42.244 7.194,62.645c6.503,24.487 20.304,41.991 38.349,58.412c16.466,14.741 35.223,26.703 55.533,35.417c29.244,12.748 62.912,21.82 95.049,21.617c83.434,-0.726 126.99,-70.865 127.799,-148.475c0.667,-59.637 -18.792,-112.086 -70.307,-145.257c-40.251,-25.837 -89.027,-29.236 -134.932,-18.845c-38.591,8.774 -76.387,29.482 -98.075,63.255c-13.017,21.476 -20.156,46.003 -20.7,71.11" style="fill:#74d9d7;fill-rule:nonzero;"/><path d="M283.487,63.235c-15.374,-17.919 -35.272,-31.396 -57.617,-39.023c-18.751,-6.701 -38.417,-10.499 -58.315,-11.261c-23.86,-0.99 -43.582,6.386 -63.8,18.239c-18.233,10.778 -34.616,24.415 -48.522,40.39c-19.977,23.059 -38.136,50.952 -47.325,80.257c-24.256,76.018 25.742,135.512 95.088,158.337c53.153,17.526 106.098,14.873 151.179,-22.648c35.279,-29.215 52.762,-72.601 57.102,-117.415c3.67,-37.633 -3.686,-77.813 -27.657,-106.992" style="fill:#f459a5;fill-rule:nonzero;"/><path d="M292.314,54.265c-17.837,-12.916 -38.874,-20.658 -59.552,-27.652c-29.8,-10.26 -60.935,-20.297 -92.713,-19.329c-32.842,1.051 -57.477,24.972 -73.623,51.668c-14.591,24.151 -32.913,54.433 -35.637,82.704c-2.555,26.625 8.86,55.227 22.471,77.767c25.964,42.947 68.088,107.07 124.765,105.477c32.602,-0.941 63.578,-17.497 87.529,-38.433c25.376,-22.159 48.847,-59.558 60.156,-99.201c13.998,-49.137 9.387,-101.724 -33.424,-133.031" style="fill:#5f6cff;fill-rule:nonzero;"/><path d="M230.779,25.947c-19.93,-8.605 -41.799,-11.741 -63.344,-9.082c-18.193,2.012 -35.972,6.792 -52.721,14.174c-20.058,8.779 -33.344,22.773 -45.194,40.655c-10.585,16.193 -18.492,33.987 -23.416,52.696c-7.95,27.656 -10.23,56.636 -6.701,85.196c10.894,72.331 76.285,101.313 142.723,92.253c51.099,-6.975 93.531,-30.348 115.496,-79.324c17.228,-38.136 14.003,-80.951 -0.546,-119.607c-12.27,-32.451 -34.715,-62.659 -66.174,-76.914" style="fill-rule:nonzero;"/><g><path d="M178.245,93.318c0.395,-0.639 0.402,-1.445 0.016,-2.09c-1.749,-2.921 -6.715,-11.219 -9.351,-15.623c-0.36,-0.601 -1.006,-0.971 -1.707,-0.977c-0.7,-0.005 -1.353,0.354 -1.722,0.949c-11.829,19.04 -80.396,129.416 -92.75,149.303c-0.385,0.619 -0.404,1.399 -0.049,2.036c0.354,0.637 1.026,1.032 1.755,1.032c14.497,-0.004 68.343,-0.02 82.693,-0.024c0.722,-0 1.389,-0.388 1.745,-1.017c0.357,-0.628 0.349,-1.399 -0.02,-2.02c-2.665,-4.472 -7.51,-12.607 -9.179,-15.408c-0.361,-0.607 -1.015,-0.979 -1.722,-0.981c-5.392,-0.009 -28.459,-0.048 -37.442,-0.063c-0.728,-0.001 -1.399,-0.396 -1.752,-1.033c-0.354,-0.636 -0.335,-1.414 0.048,-2.033c10.676,-17.227 63.024,-101.703 69.437,-112.051Z" style="fill:#fff;"/><path d="M182.296,103.522c0.367,-0.59 1.013,-0.948 1.707,-0.948c0.695,0.001 1.34,0.36 1.706,0.951c10.294,16.613 64.107,103.455 74.91,120.888c0.383,0.618 0.402,1.395 0.05,2.031c-0.352,0.636 -1.02,1.032 -1.748,1.036c-15.428,0.071 -75.76,0.35 -84.77,0.392c-0.7,0.003 -1.352,-0.359 -1.719,-0.956c-4.106,-6.669 -28.327,-46.012 -32.625,-52.992c-0.399,-0.649 -0.397,-1.467 0.005,-2.114c4.836,-7.772 34.947,-56.173 42.484,-68.288Zm-19.127,68.55c-0.405,0.647 -0.408,1.467 -0.008,2.117c3.228,5.252 17.463,28.407 20.552,33.431c0.368,0.599 1.022,0.962 1.724,0.957c5.467,-0.036 29.252,-0.192 38.389,-0.252c0.728,-0.005 1.396,-0.403 1.747,-1.04c0.35,-0.638 0.329,-1.415 -0.056,-2.032c-7.229,-11.582 -32.927,-52.757 -39.802,-63.773c-0.367,-0.587 -1.01,-0.944 -1.703,-0.945c-0.693,0 -1.337,0.357 -1.704,0.944c-4.44,7.098 -16.222,25.93 -19.139,30.593Z" style="fill:#fff;"/></g></g></g></svg>