<?xml version="1.0" encoding="UTF-8"?>
<svg version="1.1" xmlns="http://www.w3.org/2000/svg" width="389" height="319">
<path d="M0 0 C9.33484376 6.94686047 10.92396287 13.70198472 12.6875 25 C13.02242477 26.58318252 13.36863863 28.16401334 13.7253418 29.74243164 C13.90550339 30.54274307 14.08566498 31.3430545 14.27128601 32.1676178 C14.40863663 32.77230392 14.54598724 33.37699005 14.6875 34 C51.90527313 41.86852368 51.90527313 41.86852368 89.25805664 49.05737305 C95.0726488 50.11660978 100.86078159 51.23112037 106.6328125 52.50390625 C107.73262451 52.74512207 108.83243652 52.98633789 109.96557617 53.23486328 C111.97905126 53.68264794 113.99000432 54.14204246 115.99731445 54.61669922 C116.88378662 54.81408691 117.77025879 55.01147461 118.68359375 55.21484375 C119.81559204 55.47962524 119.81559204 55.47962524 120.97045898 55.74975586 C127.92317384 56.39011283 134.90937125 54.65539955 141.671875 53.1796875 C143.41104364 52.80888274 145.15022042 52.43811612 146.8894043 52.06738281 C147.79363129 51.87293579 148.69785828 51.67848877 149.62948608 51.47814941 C164.84328246 48.21029083 180.07654966 45.09540244 195.375 42.25 C209.18556336 39.67973585 222.95344018 36.95679638 236.6875 34 C236.78772461 33.3702124 236.88794922 32.7404248 236.99121094 32.09155273 C237.4590196 29.20434584 237.94807035 26.32111721 238.4375 23.4375 C238.59476562 22.44685547 238.75203125 21.45621094 238.9140625 20.43554688 C240.11608852 13.47766547 241.58584874 8.19545119 246.625 3.00390625 C252.88625421 -1.37185664 258.16497676 -2.01911278 265.6875 -1 C271.44350667 0.11922352 274.29820336 3.52927194 277.5234375 8.16015625 C283.16737154 17.08060233 279.11812704 32.76160923 277.4375 42.4375 C277.13005859 44.38172852 277.13005859 44.38172852 276.81640625 46.36523438 C275.4799416 54.28277492 274.14602258 61.23631366 268.5625 67.3125 C261.78756399 71.28909288 253.53236977 72.58602356 245.90234375 74.15625 C245.00238174 74.34465454 244.10241974 74.53305908 243.17518616 74.72717285 C241.28234495 75.12244411 239.38906242 75.5156074 237.49536133 75.90673828 C234.65528372 76.4937408 231.81682418 77.08810307 228.97851562 77.68359375 C219.07915182 79.74936729 209.1716648 81.68682891 199.20263672 83.38598633 C195.33724254 84.06118194 191.50165485 84.83337868 187.66796875 85.66796875 C185.6875 86 185.6875 86 181.6875 86 C181.57792969 87.18722656 181.46835938 88.37445313 181.35546875 89.59765625 C180.61053349 96.27607239 179.27373408 102.8440413 178 109.4375 C176.2834132 118.38140467 174.60950158 127.3275357 173.09765625 136.30859375 C172.83749626 137.83992726 172.57732386 139.37125866 172.31713867 140.90258789 C171.94192267 143.11424101 171.57041935 145.32616457 171.21133423 147.54049683 C168.93601923 161.56394532 165.86148437 173.79070642 154.125 182.75 C144.87839838 188.72746288 135.84041601 190.33918505 125 190.4375 C124.13334717 190.44773193 123.26669434 190.45796387 122.3737793 190.46850586 C111.4036519 190.31965604 102.28173451 186.81475344 93.6875 180 C90.97559755 177.20272284 88.72277445 174.31962066 86.6875 171 C86.02363281 169.91976562 85.35976562 168.83953125 84.67578125 167.7265625 C81.50962417 161.22483446 80.88951459 153.89054591 79.8125 146.8125 C79.56225967 145.23489973 79.31068954 143.65750987 79.05786133 142.08032227 C78.52900555 138.76909784 78.00741656 135.45685049 77.49169922 132.14355469 C76.28337059 124.39123779 75.02735927 116.64662144 73.77264404 108.90170288 C73.37970473 106.46665524 72.99137362 104.03090989 72.60400391 101.5949707 C72.36496334 100.10366965 72.12587106 98.61237689 71.88671875 97.12109375 C71.77969131 96.4414859 71.67266388 95.76187805 71.56239319 95.06167603 C71.1111844 92.26427608 70.58599179 89.69547538 69.6875 87 C68.68001709 86.79955078 67.67253418 86.59910156 66.63452148 86.39257812 C57.1876901 84.51194687 47.74285893 82.62159104 38.29953003 80.72344971 C32.65026421 79.58943381 26.99847062 78.46938098 21.3440094 77.36157227 C17.80454468 76.66615936 14.26698961 75.96135714 10.72976685 75.25463867 C9.04704364 74.92061897 7.36351244 74.59064207 5.6791687 74.26489258 C3.31510047 73.80707419 0.95432779 73.33481745 -1.40625 72.859375 C-2.09113998 72.73040833 -2.77602997 72.60144165 -3.48167419 72.46856689 C-10.92427807 70.9364536 -17.71336922 68.07764563 -22.0703125 61.6953125 C-24.57838882 56.2532601 -25.17310406 50.29235714 -25.97265625 44.40429688 C-26.32493441 41.91203011 -26.73287496 39.43425529 -27.15625 36.953125 C-27.43775892 35.28129358 -27.7190148 33.60941953 -28 31.9375 C-28.13172607 31.16494873 -28.26345215 30.39239746 -28.39916992 29.59643555 C-29.93316543 20.04847564 -29.85290171 12.9756997 -24 4.75 C-17.35030761 -2.0543364 -8.92719756 -2.69500304 0 0 Z M112.6875 95 C113.28564452 101.74118518 114.15465714 108.38642981 115.28125 115.05859375 C115.43283569 115.96956314 115.58442139 116.88053253 115.74060059 117.81910706 C116.05840915 119.72431212 116.37780215 121.62925352 116.69873047 123.53393555 C117.19020309 126.45355789 117.67552209 129.37415745 118.16015625 132.29492188 C118.47099213 134.15370641 118.78217743 136.01243256 119.09375 137.87109375 C119.23856812 138.74293808 119.38338623 139.61478241 119.53259277 140.51304626 C119.66943481 141.32141434 119.80627686 142.12978241 119.94726562 142.96264648 C120.06638306 143.67194809 120.18550049 144.38124969 120.30822754 145.11204529 C120.68981283 147.2122469 120.68981283 147.2122469 121.6875 150 C123.9975 150 126.3075 150 128.6875 150 C130.59263145 144.81939797 131.63300718 139.62727424 132.6328125 134.21875 C132.80755096 133.28703979 132.98228943 132.35532959 133.162323 131.39538574 C133.52913603 129.43244588 133.89376893 127.4690975 134.25634766 125.50537109 C134.81088859 122.50870783 135.37571499 119.51410713 135.94140625 116.51953125 C136.29749899 114.6068869 136.6529881 112.69413005 137.0078125 110.78125 C137.17652863 109.89046753 137.34524475 108.99968506 137.51907349 108.08190918 C138.32769375 103.65730522 138.88620841 99.52130948 138.6875 95 C137.57375 95.165 136.46 95.33 135.3125 95.5 C127.67939149 96.44402402 120.27809861 96.12453313 112.6875 95 Z " fill="#FFFFFF" transform="translate(68.3125,65)"/>
</svg>
